<?xml version="1.0" encoding="UTF-8" standalone="no"?>
<!DOCTYPE svg PUBLIC "-//W3C//DTD SVG 1.1//EN"
 "http://www.w3.org/Graphics/SVG/1.1/DTD/svg11.dtd">
<!-- Generated by graphviz version 2.38.0 (20140413.2041)
 -->
<!-- Title: G Pages: 1 -->
<svg width="728pt" height="626pt"
 viewBox="0.00 0.00 728.00 626.00" xmlns="http://www.w3.org/2000/svg" xmlns:xlink="http://www.w3.org/1999/xlink">
<g id="graph0" class="graph" transform="scale(1 1) rotate(0) translate(4 622)">
<title>G</title>
<polygon fill="white" stroke="none" points="-4,4 -4,-622 724,-622 724,4 -4,4"/>
<g id="clust1" class="cluster"><title>cluster_Global</title>
<path fill="none" stroke="gray" d="M20,-8C20,-8 700,-8 700,-8 706,-8 712,-14 712,-20 712,-20 712,-598 712,-598 712,-604 706,-610 700,-610 700,-610 20,-610 20,-610 14,-610 8,-604 8,-598 8,-598 8,-20 8,-20 8,-14 14,-8 20,-8"/>
<text text-anchor="middle" x="360" y="-597.2" font-family="Times New Roman,serif" font-size="11.00" fill="gray">Global</text>
</g>
<g id="clust2" class="cluster"><title>cluster_\PHPStrongV</title>
<path fill="none" stroke="gray" d="M28,-16C28,-16 692,-16 692,-16 698,-16 704,-22 704,-28 704,-28 704,-570 704,-570 704,-576 698,-582 692,-582 692,-582 28,-582 28,-582 22,-582 16,-576 16,-570 16,-570 16,-28 16,-28 16,-22 22,-16 28,-16"/>
<text text-anchor="middle" x="360" y="-569.2" font-family="Times New Roman,serif" font-size="11.00" fill="gray">PHPStrongV</text>
</g>
<g id="clust3" class="cluster"><title>cluster_\PHPStrongV\Base</title>
<path fill="none" stroke="gray" d="M36,-348C36,-348 230,-348 230,-348 236,-348 242,-354 242,-360 242,-360 242,-408 242,-408 242,-414 236,-420 230,-420 230,-420 36,-420 36,-420 30,-420 24,-414 24,-408 24,-408 24,-360 24,-360 24,-354 30,-348 36,-348"/>
<text text-anchor="middle" x="133" y="-407.2" font-family="Times New Roman,serif" font-size="11.00" fill="gray">Base</text>
</g>
<g id="clust4" class="cluster"><title>cluster_\PHPStrongV\Helpers</title>
<path fill="none" stroke="gray" d="M573,-482C573,-482 684,-482 684,-482 690,-482 696,-488 696,-494 696,-494 696,-542 696,-542 696,-548 690,-554 684,-554 684,-554 573,-554 573,-554 567,-554 561,-548 561,-542 561,-542 561,-494 561,-494 561,-488 567,-482 573,-482"/>
<text text-anchor="middle" x="628.5" y="-541.2" font-family="Times New Roman,serif" font-size="11.00" fill="gray">Helpers</text>
</g>
<g id="clust5" class="cluster"><title>cluster_\PHPStrongV\Types</title>
<path fill="none" stroke="gray" d="M310,-24C310,-24 657,-24 657,-24 663,-24 669,-30 669,-36 669,-36 669,-462 669,-462 669,-468 663,-474 657,-474 657,-474 310,-474 310,-474 304,-474 298,-468 298,-462 298,-462 298,-36 298,-36 298,-30 304,-24 310,-24"/>
<text text-anchor="middle" x="483.5" y="-461.2" font-family="Times New Roman,serif" font-size="11.00" fill="gray">Types</text>
</g>
<!-- \\PHPStrongV\\Base\\SVObject -->
<g id="node1" class="node"><title>\\PHPStrongV\\Base\\SVObject</title>
<polygon fill="none" stroke="black" points="97,-392 32,-392 32,-356 97,-356 97,-392"/>
<text text-anchor="middle" x="64.5" y="-371.2" font-family="Courier,monospace" font-size="11.00">SVObject</text>
</g>
<!-- \\PHPStrongV\\Base\\SVScalar -->
<g id="node2" class="node"><title>\\PHPStrongV\\Base\\SVScalar</title>
<polygon fill="none" stroke="black" points="234,-392 169,-392 169,-356 234,-356 234,-392"/>
<text text-anchor="middle" x="201.5" y="-371.2" font-family="Courier,monospace" font-size="11.00">SVScalar</text>
</g>
<!-- \\PHPStrongV\\Base\\SVScalar&#45;&gt;\\PHPStrongV\\Base\\SVObject -->
<g id="edge1" class="edge"><title>\\PHPStrongV\\Base\\SVScalar&#45;&gt;\\PHPStrongV\\Base\\SVObject</title>
<path fill="none" stroke="black" d="M168.848,-374C150.532,-374 127.254,-374 107.429,-374"/>
<polygon fill="none" stroke="black" points="107.421,-370.5 97.421,-374 107.421,-377.5 107.421,-370.5"/>
</g>
<!-- \\PHPStrongV\\Helpers\\PHPStrongVManager -->
<g id="node3" class="node"><title>\\PHPStrongV\\Helpers\\PHPStrongVManager</title>
<polygon fill="none" stroke="black" points="688,-526 569,-526 569,-490 688,-490 688,-526"/>
<text text-anchor="middle" x="628.5" y="-505.2" font-family="Courier,monospace" font-size="11.00">PHPStrongVManager</text>
</g>
<!-- \\PHPStrongV\\Types\\SVBool -->
<g id="node4" class="node"><title>\\PHPStrongV\\Types\\SVBool</title>
<polygon fill="none" stroke="black" points="655.5,-392 601.5,-392 601.5,-356 655.5,-356 655.5,-392"/>
<text text-anchor="middle" x="628.5" y="-371.2" font-family="Courier,monospace" font-size="11.00">SVBool</text>
</g>
<!-- \\PHPStrongV\\Types\\SVBool&#45;&gt;\\PHPStrongV\\Base\\SVScalar -->
<g id="edge2" class="edge"><title>\\PHPStrongV\\Types\\SVBool&#45;&gt;\\PHPStrongV\\Base\\SVScalar</title>
<path fill="none" stroke="black" d="M601.437,-384.75C564.048,-399.865 496.847,-425.814 471,-428"/>
<path fill="none" stroke="black" d="M469,-428C388.129,-434.839 295.688,-408.138 243.689,-389.862"/>
<polygon fill="none" stroke="black" points="244.747,-386.523 234.153,-386.444 242.386,-393.113 244.747,-386.523"/>
</g>
<!-- \\PHPStrongV\\Types\\SVByte -->
<g id="node5" class="node"><title>\\PHPStrongV\\Types\\SVByte</title>
<polygon fill="none" stroke="black" points="655.5,-338 601.5,-338 601.5,-302 655.5,-302 655.5,-338"/>
<text text-anchor="middle" x="628.5" y="-317.2" font-family="Courier,monospace" font-size="11.00">SVByte</text>
</g>
<!-- \\PHPStrongV\\Types\\SVInt -->
<g id="node6" class="node"><title>\\PHPStrongV\\Types\\SVInt</title>
<polygon fill="none" stroke="black" points="497,-230 443,-230 443,-194 497,-194 497,-230"/>
<text text-anchor="middle" x="470" y="-209.2" font-family="Courier,monospace" font-size="11.00">SVInt</text>
</g>
<!-- \\PHPStrongV\\Types\\SVByte&#45;&gt;\\PHPStrongV\\Types\\SVInt -->
<g id="edge3" class="edge"><title>\\PHPStrongV\\Types\\SVByte&#45;&gt;\\PHPStrongV\\Types\\SVInt</title>
<path fill="none" stroke="black" d="M601.227,-311.722C588.566,-307.147 573.463,-300.801 561,-293 536.276,-277.525 511.915,-255.031 494.786,-237.672"/>
<polygon fill="none" stroke="black" points="496.921,-234.846 487.449,-230.101 491.895,-239.718 496.921,-234.846"/>
</g>
<!-- \\PHPStrongV\\Types\\SVNumber -->
<g id="node9" class="node"><title>\\PHPStrongV\\Types\\SVNumber</title>
<polygon fill="none" stroke="black" points="371,-284 306,-284 306,-248 371,-248 371,-284"/>
<text text-anchor="middle" x="338.5" y="-263.2" font-family="Courier,monospace" font-size="11.00">SVNumber</text>
</g>
<!-- \\PHPStrongV\\Types\\SVInt&#45;&gt;\\PHPStrongV\\Types\\SVNumber -->
<g id="edge4" class="edge"><title>\\PHPStrongV\\Types\\SVInt&#45;&gt;\\PHPStrongV\\Types\\SVNumber</title>
<path fill="none" stroke="black" d="M442.794,-222.928C424.929,-230.377 400.91,-240.393 380.529,-248.891"/>
<polygon fill="none" stroke="black" points="379.041,-245.72 371.159,-252.799 381.735,-252.18 379.041,-245.72"/>
</g>
<!-- \\PHPStrongV\\Types\\SVInt16 -->
<g id="node7" class="node"><title>\\PHPStrongV\\Types\\SVInt16</title>
<polygon fill="none" stroke="black" points="658,-284 599,-284 599,-248 658,-248 658,-284"/>
<text text-anchor="middle" x="628.5" y="-263.2" font-family="Courier,monospace" font-size="11.00">SVInt16</text>
</g>
<!-- \\PHPStrongV\\Types\\SVInt16&#45;&gt;\\PHPStrongV\\Types\\SVInt -->
<g id="edge5" class="edge"><title>\\PHPStrongV\\Types\\SVInt16&#45;&gt;\\PHPStrongV\\Types\\SVInt</title>
<path fill="none" stroke="black" d="M598.795,-256.096C572.939,-247.174 534.822,-234.022 506.946,-224.403"/>
<polygon fill="none" stroke="black" points="507.776,-220.987 497.181,-221.034 505.492,-227.604 507.776,-220.987"/>
</g>
<!-- \\PHPStrongV\\Types\\SVInt32 -->
<g id="node8" class="node"><title>\\PHPStrongV\\Types\\SVInt32</title>
<polygon fill="none" stroke="black" points="658,-230 599,-230 599,-194 658,-194 658,-230"/>
<text text-anchor="middle" x="628.5" y="-209.2" font-family="Courier,monospace" font-size="11.00">SVInt32</text>
</g>
<!-- \\PHPStrongV\\Types\\SVInt32&#45;&gt;\\PHPStrongV\\Types\\SVInt -->
<g id="edge6" class="edge"><title>\\PHPStrongV\\Types\\SVInt32&#45;&gt;\\PHPStrongV\\Types\\SVInt</title>
<path fill="none" stroke="black" d="M598.795,-212C573.052,-212 535.156,-212 507.313,-212"/>
<polygon fill="none" stroke="black" points="507.181,-208.5 497.181,-212 507.181,-215.5 507.181,-208.5"/>
</g>
<!-- \\PHPStrongV\\Types\\SVNumber&#45;&gt;\\PHPStrongV\\Base\\SVScalar -->
<g id="edge7" class="edge"><title>\\PHPStrongV\\Types\\SVNumber&#45;&gt;\\PHPStrongV\\Base\\SVScalar</title>
<path fill="none" stroke="black" d="M314.904,-284.077C292.515,-301.988 258.063,-329.55 233.202,-349.439"/>
<polygon fill="none" stroke="black" points="230.792,-346.884 225.17,-355.864 235.165,-352.35 230.792,-346.884"/>
</g>
<!-- \\PHPStrongV\\Types\\SVString -->
<g id="node10" class="node"><title>\\PHPStrongV\\Types\\SVString</title>
<polygon fill="none" stroke="black" points="661,-446 596,-446 596,-410 661,-410 661,-446"/>
<text text-anchor="middle" x="628.5" y="-425.2" font-family="Courier,monospace" font-size="11.00">SVString</text>
</g>
<!-- \\PHPStrongV\\Types\\SVString&#45;&gt;\\PHPStrongV\\Base\\SVScalar -->
<g id="edge8" class="edge"><title>\\PHPStrongV\\Types\\SVString&#45;&gt;\\PHPStrongV\\Base\\SVScalar</title>
<path fill="none" stroke="black" d="M595.716,-427.347C564.089,-426.851 514.174,-426.484 471,-428"/>
</g>
<!-- \\PHPStrongV\\Types\\SVUByte -->
<g id="node11" class="node"><title>\\PHPStrongV\\Types\\SVUByte</title>
<polygon fill="none" stroke="black" points="658,-176 599,-176 599,-140 658,-140 658,-176"/>
<text text-anchor="middle" x="628.5" y="-155.2" font-family="Courier,monospace" font-size="11.00">SVUByte</text>
</g>
<!-- \\PHPStrongV\\Types\\SVUByte&#45;&gt;\\PHPStrongV\\Types\\SVInt -->
<g id="edge9" class="edge"><title>\\PHPStrongV\\Types\\SVUByte&#45;&gt;\\PHPStrongV\\Types\\SVInt</title>
<path fill="none" stroke="black" d="M598.795,-167.904C572.939,-176.826 534.822,-189.978 506.946,-199.597"/>
<polygon fill="none" stroke="black" points="505.492,-196.396 497.181,-202.966 507.776,-203.013 505.492,-196.396"/>
</g>
<!-- \\PHPStrongV\\Types\\SVUInt16 -->
<g id="node12" class="node"><title>\\PHPStrongV\\Types\\SVUInt16</title>
<polygon fill="none" stroke="black" points="661,-122 596,-122 596,-86 661,-86 661,-122"/>
<text text-anchor="middle" x="628.5" y="-101.2" font-family="Courier,monospace" font-size="11.00">SVUInt16</text>
</g>
<!-- \\PHPStrongV\\Types\\SVUInt16&#45;&gt;\\PHPStrongV\\Types\\SVInt -->
<g id="edge10" class="edge"><title>\\PHPStrongV\\Types\\SVUInt16&#45;&gt;\\PHPStrongV\\Types\\SVInt</title>
<path fill="none" stroke="black" d="M595.954,-114.236C584.519,-118.601 571.773,-124.257 561,-131 536.276,-146.475 511.915,-168.969 494.786,-186.328"/>
<polygon fill="none" stroke="black" points="491.895,-184.282 487.449,-193.899 496.921,-189.154 491.895,-184.282"/>
</g>
<!-- \\PHPStrongV\\Types\\SVUInt32 -->
<g id="node13" class="node"><title>\\PHPStrongV\\Types\\SVUInt32</title>
<polygon fill="none" stroke="black" points="661,-68 596,-68 596,-32 661,-32 661,-68"/>
<text text-anchor="middle" x="628.5" y="-47.2" font-family="Courier,monospace" font-size="11.00">SVUInt32</text>
</g>
<!-- \\PHPStrongV\\Types\\SVUInt32&#45;&gt;\\PHPStrongV\\Types\\SVInt -->
<g id="edge11" class="edge"><title>\\PHPStrongV\\Types\\SVUInt32&#45;&gt;\\PHPStrongV\\Types\\SVInt</title>
<path fill="none" stroke="black" d="M595.966,-58.4679C584.147,-62.702 571.138,-68.7302 561,-77 524.759,-106.561 497.67,-154.563 483.106,-184.651"/>
<polygon fill="none" stroke="black" points="479.918,-183.207 478.822,-193.745 486.25,-186.19 479.918,-183.207"/>
</g>
</g>
</svg>
